<svg xmlns="http://www.w3.org/2000/svg" width="20" height="20" viewBox="0 0 20 20" fill="none">
  <path d="M 10 0 C 12.717 0 13.056 0.01 14.122 0.06 C 15.188 0.11 15.912 0.277 16.55 0.525 C 17.21 0.779 17.766 1.123 18.322 1.678 C 18.831 2.178 19.224 2.783 19.475 3.45 C 19.722 4.087 19.89 4.813 19.94 5.878 C 19.987 6.944 20 7.283 20 10 C 20 12.717 19.99 13.056 19.94 14.122 C 19.89 15.188 19.722 15.912 19.475 16.55 C 19.224 17.218 18.831 17.822 18.322 18.322 C 17.822 18.83 17.217 19.224 16.55 19.475 C 15.913 19.722 15.187 19.89 14.122 19.94 C 13.056 19.987 12.717 20 10 20 C 7.283 20 6.944 19.99 5.878 19.94 C 4.812 19.89 4.088 19.722 3.45 19.475 C 2.782 19.224 2.178 18.831 1.678 18.322 C 1.169 17.822 0.776 17.218 0.525 16.55 C 0.277 15.913 0.11 15.187 0.06 14.122 C 0.013 13.056 0 12.717 0 10 C 0 7.283 0.01 6.944 0.06 5.878 C 0.11 4.812 0.277 4.088 0.525 3.45 C 0.776 2.782 1.169 2.178 1.678 1.678 C 2.178 1.169 2.782 0.776 3.45 0.525 C 4.088 0.277 4.812 0.11 5.878 0.06 C 6.944 0.013 7.283 0 10 0 Z M 10 5 C 8.674 5 7.402 5.527 6.464 6.464 C 5.527 7.402 5 8.674 5 10 C 5 11.326 5.527 12.598 6.464 13.536 C 7.402 14.473 8.674 15 10 15 C 11.326 15 12.598 14.473 13.536 13.536 C 14.473 12.598 15 11.326 15 10 C 15 8.674 14.473 7.402 13.536 6.464 C 12.598 5.527 11.326 5 10 5 Z M 16.5 4.75 C 16.5 4.418 16.368 4.101 16.134 3.866 C 15.899 3.632 15.582 3.5 15.25 3.5 C 14.918 3.5 14.601 3.632 14.366 3.866 C 14.132 4.101 14 4.418 14 4.75 C 14 5.082 14.132 5.399 14.366 5.634 C 14.601 5.868 14.918 6 15.25 6 C 15.582 6 15.899 5.868 16.134 5.634 C 16.368 5.399 16.5 5.082 16.5 4.75 Z M 10 7 C 10.796 7 11.559 7.316 12.121 7.879 C 12.684 8.441 13 9.204 13 10 C 13 10.796 12.684 11.559 12.121 12.121 C 11.559 12.684 10.796 13 10 13 C 9.204 13 8.441 12.684 7.879 12.121 C 7.316 11.559 7 10.796 7 10 C 7 9.204 7.316 8.441 7.879 7.879 C 8.441 7.316 9.204 7 10 7 Z" fill="currentColor" fill-rule="nonzero"></path>
</svg>