<svg width="12" height="12" viewBox="0 0 12 12" fill="none" xmlns="http://www.w3.org/2000/svg">
<path d="M2.853 9.59679L2.399 10.0508H9.601L9.147 9.59679L10.5 10.0508C10.426 9.83579 10.36 9.67079 10.2855 9.53929L8.9985 6.45429V6.47879C8.89169 6.22309 8.7531 5.98186 8.586 5.76079C8.718 6.49529 8.248 7.27079 7.728 6.96579C6.788 6.47879 8.528 4.91079 7.415 3.48429C7.093 3.07179 6.615 2.83229 6.326 2.39529C6.062 1.99929 6.004 1.36429 6.326 1.05029C5.476 1.76829 5.031 2.99729 5.212 4.13579C5.262 4.44079 5.336 4.80379 5.138 5.03479C4.9315 5.27429 4.5275 5.18329 4.3295 4.93579C4.1315 4.68829 4.074 4.35029 4.0245 4.02079C3.686 4.55629 3.6285 5.29079 3.8925 5.87629C3.9915 6.09129 4.1235 6.28879 4.1895 6.51979C4.2555 6.75079 4.2305 7.03129 4.0575 7.17979C3.818 7.37779 3.447 7.21279 3.2985 6.93229C3.15 6.65179 3.1665 6.31379 3.191 5.99229C3.15 6.07429 3.117 6.14879 3.084 6.22279V6.19779L1.5 10.0433L2.853 9.58929V9.59679Z" fill="white"/>
<path d="M10.5003 10.0502L9.15529 9.59668L9.60029 10.0507H2.40779L2.85279 9.59668L1.50879 10.0507L2.40779 10.9497H9.60129L10.5003 10.0502Z" fill="black"/>
</svg>
