<svg xmlns="http://www.w3.org/2000/svg" width="1em" height="1em" fill="none" viewBox="0 0 24 24" class="text-[1.5rem] text-neu-layer-2" style="--primary: #BA001D; --secondary: white;"><path fill="var(--primary)" d="m5.706 19.194-.908.908h14.404l-.908-.908 2.706.908c-.148-.43-.28-.76-.429-1.023l-2.574-6.17v.049a6.6 6.6 0 0 0-.825-1.436c.264 1.469-.676 3.02-1.716 2.41-1.88-.974 1.6-4.11-.626-6.963-.644-.825-1.6-1.304-2.178-2.178-.528-.792-.644-2.062 0-2.69-1.7 1.436-2.59 3.894-2.228 6.171.1.61.248 1.336-.148 1.798-.413.479-1.221.297-1.617-.198s-.511-1.171-.61-1.83c-.677 1.071-.792 2.54-.264 3.711.198.43.462.825.594 1.287s.082 1.023-.264 1.32c-.479.396-1.221.066-1.518-.495s-.264-1.237-.215-1.88c-.082.164-.148.313-.214.461v-.05L3 20.087l2.706-.908z"></path><path fill="var(--secondary)" d="m21 20.1-2.69-.907.89.908H4.815l.89-.908-2.688.908 1.798 1.798h14.387z"></path></svg>