<svg xmlns="http://www.w3.org/2000/svg" width="13.792" height="15.833" viewBox="0 0 13.792 15.833" fill="none">
  <path d="M 10.942 2.481 C 10.341 1.794 10.01 0.913 10.01 0 L 7.292 0 L 7.292 10.907 C 7.271 11.498 7.022 12.057 6.597 12.467 C 6.172 12.878 5.604 13.107 5.013 13.107 C 4.407 13.105 3.826 12.864 3.398 12.435 C 2.969 12.007 2.728 11.426 2.726 10.82 C 2.726 9.306 4.186 8.172 5.691 8.638 L 5.691 5.858 C 2.656 5.454 0 7.811 0 10.82 C 0 13.749 2.427 15.833 5.005 15.833 C 6.334 15.832 7.607 15.303 8.546 14.362 C 9.484 13.422 10.011 12.148 10.01 10.819 L 10.01 5.287 C 11.112 6.078 12.435 6.502 13.792 6.5 L 13.792 3.782 C 13.792 3.782 12.138 3.862 10.942 2.481 Z" fill="currentColor" fill-rule="nonzero"></path>
</svg>